<?xml version="1.0" encoding="UTF-8"?><svg id="Warstwa_2" xmlns="http://www.w3.org/2000/svg" xmlns:xlink="http://www.w3.org/1999/xlink" viewBox="0 0 300 65"><defs><style>.cls-1{fill:#fff;}.cls-2{fill:#6db647;}.cls-3{clip-path:url(#clippath);}.cls-4{fill:none;}.cls-5{fill:#f8ac2e;}.cls-6{fill:#58ab46;}</style><clipPath id="clippath"><rect class="cls-4" width="300" height="65"/></clipPath></defs><g id="Warstwa_1-2"><g class="cls-3"><g><path class="cls-5" d="M99.8,54.34c0-.42-.34-.76-.76-.76s-.76,.34-.76,.76c0,3.44,1.21,5.83,2.85,7.51,.43-.28,.86-.57,1.26-.88-1.71-1.67-2.59-3.88-2.59-6.63"/><polyline points="48.24 62.71 48.24 62.71 48.24 62.71 48.24 62.71"/><path d="M38.46,39.72c.2-.67,.43-1.32,.69-1.95-.26,.64-.5,1.29-.69,1.95"/><path d="M43.66,59.4c-.7-.68-1.35-1.42-1.95-2.2,.59,.78,1.24,1.52,1.95,2.2"/><path d="M39.16,52.77c-.27-.64-.5-1.31-.7-1.98,.2,.68,.43,1.34,.7,1.98"/><path d="M42.79,32.03c-.71,.79-1.37,1.63-1.95,2.52,.58-.9,1.24-1.74,1.95-2.52"/><polygon class="cls-5" points="48.23 62.71 48.24 62.71 48.23 62.71 48.23 62.71"/><polygon class="cls-5" points="48.23 38.6 48.23 62.71 48.24 62.71 48.24 62.71 48.24 38.6 48.23 38.6"/><path class="cls-6" d="M48.24,27.81s0,0-.01,0h0s0,0,.01,0"/><path class="cls-6" d="M42.79,32.03c1.25,2.61,3.13,4.87,5.44,6.57"/><path class="cls-2" d="M52.97,41.07c-.81-.28-1.6-.61-2.36-1,.76,.39,1.54,.72,2.36,1"/><path class="cls-2" d="M58.64,42.01h0c-.44,0-.87-.02-1.29-.05,.43,.03,.86,.05,1.29,.05"/><path class="cls-2" d="M41.35,21.39c.01-.08,.03-.16,.04-.24-.02,.08-.03,.16-.04,.24"/><path class="cls-2" d="M43.5,15.56s.05-.08,.07-.12c-.02,.04-.05,.08-.07,.12"/><path class="cls-2" d="M44.32,14.3c.04-.05,.07-.11,.11-.16-.04,.05-.08,.11-.11,.16"/><path class="cls-2" d="M42.81,16.83s0-.01,0-.02c0,0,0,.01,0,.02"/><path class="cls-2" d="M41.15,22.96c0-.06,0-.12,.01-.18,0,.06,0,.12-.01,.18"/><path class="cls-2" d="M41.7,19.83c.02-.08,.04-.16,.07-.23-.02,.08-.04,.15-.07,.23"/><path class="cls-2" d="M42.19,18.3c.02-.06,.04-.11,.07-.17-.02,.06-.05,.11-.07,.17"/><path class="cls-2" d="M45.27,13.08s.08-.1,.12-.14c-.04,.05-.08,.1-.12,.14"/><path class="cls-2" d="M41.08,24.45h0c0,.33,0,.65,.03,.97-.02-.32-.03-.64-.03-.96h0"/><path class="cls-6" d="M41.16,22.77c.04-.47,.11-.93,.19-1.39-.08,.46-.15,.92-.19,1.39"/><path class="cls-6" d="M42.82,16.82c.21-.43,.43-.84,.67-1.25-.24,.41-.47,.82-.67,1.25"/><path class="cls-6" d="M43.57,15.44c.24-.39,.49-.77,.75-1.14-.26,.37-.52,.75-.75,1.14"/><path class="cls-6" d="M41.08,24.45c0-.5,.03-1,.07-1.49-.04,.49-.07,.99-.07,1.49"/><path class="cls-6" d="M44.43,14.14c.26-.36,.54-.72,.84-1.06-.29,.34-.57,.7-.84,1.06"/><path class="cls-6" d="M46.22,12.04c-.29,.29-.56,.59-.83,.89,.27-.31,.55-.6,.83-.89h0Z"/><path class="cls-6" d="M41.39,21.15c.09-.45,.19-.89,.31-1.32-.12,.43-.22,.88-.31,1.32"/><path class="cls-6" d="M42.25,18.14c.17-.44,.35-.88,.56-1.3-.2,.42-.39,.86-.56,1.3"/><path class="cls-6" d="M41.76,19.6c.13-.44,.27-.87,.42-1.29-.16,.42-.3,.85-.42,1.29"/><g><path class="cls-5" d="M99.04,53.58c.42,0,.76,.34,.76,.76,0,2.74,.88,4.95,2.59,6.63,4.75-3.6,7.81-9.29,7.81-15.7,0-6.07-2.75-11.49-7.06-15.11-.41-.35-.84-.67-1.29-.99-3.21-2.26-7.12-3.6-11.34-3.6h0v39.38h0c3.91,0,7.55-1.14,10.61-3.11-1.63-1.67-2.85-4.07-2.85-7.51,0-.42,.34-.76,.76-.76"/><path class="cls-5" d="M58.64,42.01c-3.89,0-7.48-1.27-10.39-3.41v24.11c2.73,1.43,5.82,2.24,9.12,2.24,.49,0,.97,.03,1.45,0v-22.94h-.17Z"/><path class="cls-6" d="M76.2,24.45v1.12h3.75s7.55,0,7.55,0v-7.98C87.49,7.89,79.63,.03,69.93,.03c-5.77,0-10.9,2.79-14.1,7.09,.91-.15,1.85-.22,2.8-.22,9.7,0,17.56,7.86,17.56,17.56"/><polygon class="cls-5" points="76.2 25.57 76.2 35.15 76.2 42.01 69.38 42.01 69.37 42.01 69.37 64.95 79.94 64.95 79.94 64.85 79.94 35.15 79.94 25.57 79.94 25.57 79.94 25.57 76.2 25.57"/><path class="cls-2" d="M58.64,6.9c-.95,0-1.89,.08-2.8,.23-3.73,.6-7.06,2.37-9.61,4.93l.04,.03,6.13,6.13,7.37,7.37,.18,.18,9.39,9.39,.05,.05h.01s6.82,6.83,6.82,6.83V24.45c0-9.7-7.86-17.56-17.56-17.56"/><path class="cls-6" d="M69.38,35.2h-.01s-.05-.06-.05-.06l-9.39-9.39-.18-.18-7.37-7.37-6.13-6.13-.04-.03c-.29,.29-.57,.58-.83,.89-.04,.05-.08,.1-.12,.14-.29,.34-.57,.7-.84,1.06-.04,.05-.08,.11-.11,.16-.26,.37-.52,.75-.75,1.14-.02,.04-.05,.08-.07,.12-.24,.41-.47,.82-.67,1.25,0,0,0,.01,0,.02-.2,.42-.39,.86-.56,1.3-.02,.06-.05,.11-.07,.17-.16,.42-.3,.85-.42,1.29-.02,.08-.04,.15-.07,.23-.12,.43-.22,.87-.31,1.32-.01,.08-.03,.16-.04,.24-.08,.46-.15,.92-.19,1.39,0,.06,0,.12-.01,.18-.04,.49-.07,.99-.07,1.49,0,0,0,0,0,0,0,.32,.01,.64,.03,.96,0,.1,.02,.19,.02,.28,.02,.22,.03,.45,.06,.67,.01,.11,.03,.22,.04,.33,.03,.2,.05,.4,.09,.61,.02,.11,.04,.23,.06,.34,.04,.2,.07,.39,.12,.59,.02,.11,.05,.22,.08,.33,.05,.2,.1,.39,.15,.59,.03,.1,.06,.21,.09,.31,.06,.2,.13,.41,.19,.61,.03,.09,.06,.18,.09,.27,.08,.22,.16,.44,.25,.66,.03,.06,.05,.13,.08,.19,.12,.28,.24,.56,.37,.83l.03,.04c1.25,2.59,3.11,4.84,5.41,6.53h0c.35,.27,.72,.51,1.09,.75,.02,.01,.03,.02,.05,.03,.36,.23,.74,.44,1.12,.64,.04,.02,.08,.04,.12,.06,.76,.39,1.54,.72,2.36,1,.06,.02,.12,.04,.19,.06,.4,.13,.8,.25,1.21,.35,.05,.01,.09,.02,.14,.03,.38,.09,.76,.17,1.15,.24,.06,0,.12,.02,.18,.03,.41,.07,.82,.12,1.24,.15,.09,0,.18,.01,.26,.02,.43,.03,.86,.05,1.29,.05h17.56l-6.82-6.82Z"/><path class="cls-1" d="M106.55,40.51c0,2.81-2.28,5.1-5.09,5.1s-5.09-2.28-5.09-5.1,2.28-5.09,5.09-5.09,5.09,2.28,5.09,5.09"/><path class="cls-1" d="M100.68,37.96c-.17-.08-.36-.13-.56-.13-.74,0-1.34,.6-1.34,1.34,0,.2,.05,.39,.13,.56,.21,.46,.67,.77,1.21,.77,.74,0,1.34-.6,1.34-1.34,0-.54-.32-1-.78-1.21"/><path class="cls-2" d="M246.42,46.9c-.46,0-.94,.23-1.44,.67-.18,.16-.32,.29-.43,.4-.11,.11-.22,.23-.32,.36l2.28,2.57,.88-.78c.46-.41,.72-.84,.78-1.27,.06-.44-.11-.87-.5-1.32-.37-.42-.79-.63-1.25-.62"/><path class="cls-2" d="M251.46,29.76c-9.69,0-17.54,7.85-17.54,17.54v17.54h17.54c9.69,0,17.54-7.85,17.54-17.54s-7.85-17.54-17.54-17.54m-9.5,29.74c-.13,.55-.48,.99-1.05,1.32-.58,.33-1.13,.41-1.67,.25-.54-.16-.96-.52-1.27-1.06-.31-.54-.4-1.08-.27-1.63,.13-.55,.48-.99,1.05-1.32,.58-.33,1.13-.41,1.67-.25,.54,.17,.96,.52,1.27,1.06,.31,.54,.4,1.08,.28,1.63m9.95-11.11c-.06,.61-.26,1.23-.63,1.86-.36,.63-.88,1.24-1.55,1.84l-1.17,1.05,2.71,3.04c-.09,.14-.25,.34-.48,.61-.23,.26-.47,.51-.73,.73-.25,.23-.49,.41-.72,.54-.23,.13-.45,.21-.67,.23-.22,.02-.44-.03-.67-.15-.22-.12-.46-.32-.72-.61l-6.94-7.8c-.21-.23-.3-.47-.29-.71,.01-.24,.1-.5,.25-.77,.26-.47,.6-.94,1.03-1.43,.43-.49,.88-.95,1.37-1.38,1.52-1.35,2.98-2.06,4.36-2.13,1.39-.07,2.57,.46,3.57,1.57,.48,.54,.83,1.11,1.05,1.69,.22,.59,.3,1.19,.24,1.8m7.72,.56c-.48,.42-.97,.62-1.49,.59-.52-.03-.99-.28-1.42-.76l-7.61-8.56c.1-.13,.27-.33,.5-.61,.23-.27,.47-.52,.71-.74,.25-.23,.49-.41,.72-.54,.23-.13,.45-.21,.67-.23,.22-.02,.44,.03,.67,.15,.22,.12,.46,.32,.72,.61l5.82,6.54,3.79-3.37c.19,.05,.4,.15,.65,.3,.25,.15,.47,.33,.67,.55,.39,.44,.58,.84,.55,1.19-.03,.35-.19,.66-.5,.94l-4.44,3.95Z"/></g><g><path d="M108.26,19.22c-1.27,0-2.33,.91-2.57,2.11-8.05,1.66-8.75,11.02-8.75,11.12-.03,.42,.29,.78,.71,.81,.02,0,.03,0,.05,0,.4,0,.73-.31,.76-.71,0-.02,.18-2.53,1.49-5.03,1.33-2.53,3.32-4.08,5.91-4.66,.4,.94,1.33,1.59,2.41,1.59,1.45,0,2.62-1.17,2.62-2.62s-1.17-2.62-2.62-2.62"/><path d="M108.01,25.66c-1.24,0-2.27,.87-2.54,2.02-1.42,.29-2.61,.82-3.61,1.49,.44,.31,.87,.64,1.29,.99,.74-.43,1.55-.73,2.43-.93,.38,.98,1.32,1.67,2.44,1.67,1.45,0,2.62-1.17,2.62-2.62s-1.17-2.62-2.62-2.62"/><polygon points="87.49 25.57 79.94 25.57 79.94 28.65 79.94 31.09 79.94 35.15 79.94 59.43 79.94 61.87 79.94 64.95 90.51 64.95 90.51 57.9 90.51 25.57 87.49 25.57"/><path d="M99.8,54.34c0-.42-.34-.76-.76-.76s-.76,.34-.76,.76c0,3.44,1.21,5.83,2.85,7.51,.43-.28,.86-.57,1.26-.88-1.71-1.67-2.59-3.88-2.59-6.63"/><polygon points="58.81 42.01 58.81 64.89 58.81 64.95 69.38 64.95 69.38 60.85 69.38 42.01 58.81 42.01"/><path d="M42.79,32.03c-.71,.79-1.37,1.63-1.95,2.52l-.03,.04c-.19,.3-.38,.6-.56,.91,0,.02-.02,.03-.03,.05-.4,.71-.76,1.45-1.07,2.21-.26,.64-.5,1.29-.69,1.95,0,.01,0,.02,0,.03-.1,.35-.19,.71-.28,1.07,0,.02-.01,.04-.01,.06-.08,.37-.16,.74-.22,1.12h0s-.27,.13-.27,.13l-6.67,3.27,6.67,2.95,.26,.12c.06,.37,.13,.74,.21,1.1l.03,.11c.08,.34,.16,.67,.26,1,0,.04,.02,.07,.03,.11,.2,.68,.43,1.34,.7,1.98,.31,.74,.65,1.46,1.04,2.15,.02,.03,.03,.05,.05,.08,.17,.3,.34,.59,.53,.87,.02,.03,.04,.06,.06,.09,.28,.42,.57,.83,.88,1.23,.6,.78,1.24,1.52,1.95,2.2,.01,.01,.02,.02,.03,.03,.25,.25,.52,.48,.78,.71,.02,.02,.04,.03,.05,.05,1.13,.97,2.37,1.82,3.7,2.51v-24.11c-2.31-1.7-4.19-3.96-5.44-6.57"/><path d="M101.46,37.84c-.27,0-.53,.05-.78,.13,.46,.21,.78,.67,.78,1.21,0,.74-.6,1.34-1.34,1.34-.54,0-1-.32-1.21-.77-.08,.25-.13,.5-.13,.77,0,1.48,1.2,2.67,2.67,2.67s2.67-1.2,2.67-2.67-1.2-2.67-2.67-2.67"/><path d="M136,55.92c2.06,0,3.67-.71,4.82-2.12,1.15-1.41,1.72-3.51,1.72-6.3s-.58-4.94-1.75-6.33c-1.17-1.39-2.74-2.09-4.71-2.09-.9,0-1.67,.09-2.32,.27-.65,.18-1.36,.45-2.12,.81v14.68c.49,.32,1.09,.57,1.78,.77,.7,.2,1.56,.3,2.59,.3m-15.76-35.9c.45-.13,1.17-.28,2.16-.44,.99-.16,2-.23,3.03-.23s1.87,.07,2.66,.2c.79,.14,1.45,.4,1.99,.81,.54,.4,.94,.95,1.21,1.65,.27,.7,.4,1.61,.4,2.73v6.6c1.12-.45,2.19-.76,3.2-.94,1.01-.18,2.12-.27,3.33-.27,2.16,0,4.2,.38,6.13,1.15,1.93,.76,3.64,1.87,5.12,3.33,1.48,1.46,2.65,3.27,3.5,5.42,.85,2.16,1.28,4.65,1.28,7.48s-.44,5.47-1.31,7.64c-.88,2.18-2.1,3.99-3.67,5.42-1.57,1.44-3.49,2.53-5.76,3.27-2.27,.74-4.77,1.11-7.51,1.11-2.96,0-5.48-.35-7.54-1.05-2.07-.7-3.82-1.56-5.25-2.59-1.98-1.39-2.96-3.19-2.96-5.39V20.02Z"/><path d="M175.26,38.47c-1.08,0-2.01,.18-2.79,.54-.79,.36-1.43,.82-1.92,1.38-.49,.56-.87,1.19-1.11,1.89-.25,.7-.39,1.4-.44,2.12l11.52-1.89c-.14-.9-.63-1.79-1.48-2.69-.85-.9-2.11-1.35-3.77-1.35m1.89,26.47c-2.65,0-5.11-.37-7.37-1.11-2.27-.74-4.24-1.85-5.93-3.33-1.68-1.48-3.01-3.34-3.97-5.59-.97-2.25-1.45-4.87-1.45-7.88s.48-5.51,1.45-7.64c.96-2.13,2.23-3.88,3.8-5.25,1.57-1.37,3.37-2.38,5.39-3.03,2.02-.65,4.08-.98,6.2-.98,2.38,0,4.55,.36,6.5,1.08,1.95,.72,3.64,1.71,5.05,2.96,1.41,1.26,2.51,2.76,3.3,4.51,.79,1.75,1.18,3.66,1.18,5.72,0,1.53-.43,2.69-1.28,3.5-.85,.81-2.04,1.33-3.57,1.55l-16.64,2.49c.49,1.48,1.5,2.59,3.03,3.33,1.53,.74,3.28,1.11,5.25,1.11,1.84,0,3.58-.24,5.22-.71,1.64-.47,2.97-1.02,4.01-1.65,.72,.45,1.32,1.08,1.82,1.89,.49,.81,.74,1.66,.74,2.56,0,2.02-.94,3.53-2.83,4.51-1.44,.76-3.05,1.28-4.85,1.55-1.8,.27-3.48,.4-5.05,.4"/><path d="M212.24,38.47c-1.08,0-2.01,.18-2.79,.54-.79,.36-1.43,.82-1.92,1.38-.49,.56-.86,1.19-1.11,1.89-.25,.7-.39,1.4-.44,2.12l11.52-1.89c-.14-.9-.63-1.79-1.48-2.69-.85-.9-2.11-1.35-3.77-1.35m1.89,26.47c-2.65,0-5.11-.37-7.37-1.11-2.27-.74-4.24-1.85-5.93-3.33-1.68-1.48-3.01-3.34-3.97-5.59-.97-2.25-1.45-4.87-1.45-7.88s.48-5.51,1.45-7.64c.96-2.13,2.23-3.88,3.8-5.25,1.57-1.37,3.37-2.38,5.39-3.03,2.02-.65,4.09-.98,6.2-.98,2.38,0,4.55,.36,6.5,1.08,1.95,.72,3.64,1.71,5.05,2.96,1.41,1.26,2.51,2.76,3.3,4.51,.78,1.75,1.18,3.66,1.18,5.72,0,1.53-.43,2.69-1.28,3.5-.85,.81-2.04,1.33-3.57,1.55l-16.63,2.49c.49,1.48,1.5,2.59,3.03,3.33,1.53,.74,3.28,1.11,5.25,1.11,1.84,0,3.58-.24,5.22-.71,1.64-.47,2.97-1.02,4.01-1.65,.72,.45,1.32,1.08,1.82,1.89,.49,.81,.74,1.66,.74,2.56,0,2.02-.94,3.53-2.83,4.51-1.44,.76-3.05,1.28-4.85,1.55-1.8,.27-3.48,.4-5.05,.4"/></g></g></g></g></svg>